Coordinates
version=1
nRows=43
nColumns=12
inDegrees=yes

Units are S.I. units (second, meters, Newtons, ...)
Angles are in degrees

endheader
time	SC_y	SC_z	SC_x	AC_y	AC_z	AC_x	GH_y	GH_z	GH_yy	EL_x	PS_y
       0.0              -29.98          14.16          82.03          41.63          -5.22         -5.329           92.4           42.0          138.2          42.77          102.7
   0.01522              -29.99          14.17          82.02          41.64         -5.218         -5.327          92.38           42.0          138.2          42.78          102.7
   0.03044              -29.99          14.17           82.0          41.64         -5.217         -5.324          92.37          41.99          138.2           42.8          102.7
   0.04566              -29.99          14.17          81.99          41.64         -5.215         -5.322          92.35          41.99          138.1          42.81          102.7
   0.06088               -30.0          14.18          81.98          41.65         -5.213          -5.32          92.33          41.98          138.1          42.82          102.6
    0.0761               -30.0          14.18          81.97          41.65         -5.211         -5.317          92.31          41.97          138.1          42.83          102.6
   0.09132              -30.01          14.19          81.95          41.65         -5.209         -5.314          92.29          41.96          138.0          42.85          102.6
    0.1065              -30.01          14.19          81.94          41.66         -5.207         -5.311          92.26          41.95          138.0          42.86          102.6
    0.1218              -30.02           14.2          81.92          41.66         -5.204         -5.308          92.24          41.94          137.9          42.88          102.6
     0.137              -30.02           14.2           81.9          41.66         -5.201         -5.305          92.21          41.93          137.9           42.9          102.6
    0.1522              -30.03          14.21          81.88          41.67         -5.199         -5.301          92.18          41.92          137.8          42.91          102.5
    0.1674              -30.04          14.22          81.86          41.67         -5.195         -5.297          92.15          41.91          137.8          42.93          102.5
    0.1826              -30.04          14.22          81.84          41.68         -5.192         -5.293          92.12           41.9          137.7          42.96          102.5
    0.1979              -30.05          14.23          81.82          41.69         -5.189         -5.288          92.09          41.88          137.7          42.98          102.5
    0.2131              -30.06          14.24          81.79          41.69         -5.185         -5.283          92.05          41.87          137.6          43.01          102.4
    0.2283              -30.07          14.25          81.76           41.7          -5.18         -5.278          92.01          41.85          137.5          43.03          102.4
    0.2435              -30.08          14.26          81.73          41.71         -5.176         -5.272          91.96          41.84          137.4          43.06          102.4
    0.2587              -30.09          14.27           81.7          41.71         -5.171         -5.266          91.91          41.82          137.3           43.1          102.4
     0.274               -30.1          14.28          81.67          41.72         -5.165         -5.259          91.86           41.8          137.2          43.13          102.3
    0.2892              -30.11          14.29          81.63          41.73          -5.16         -5.251           91.8          41.77          137.1          43.17          102.3
    0.3044              -30.13          14.31          81.58          41.74         -5.153         -5.243          91.73          41.75          137.0          43.21          102.2
    0.3196              -30.14          14.32          81.54          41.75         -5.146         -5.233          91.66          41.72          136.9          43.26          102.2
    0.3348              -30.16          14.34          81.48          41.77         -5.138         -5.223          91.58          41.69          136.7          43.31          102.1
    0.3501              -30.18          14.36          81.43          41.78         -5.129         -5.212          91.49          41.66          136.6          43.37          102.1
    0.3653               -30.2          14.38          81.36           41.8         -5.119         -5.199           91.4          41.62          136.4          43.43          102.0
    0.3805              -30.22           14.4          81.29          41.82         -5.108         -5.185          91.29          41.58          136.2           43.5          101.9
    0.3957              -30.25          14.43          81.21          41.83         -5.096          -5.17          91.17          41.53          136.0          43.58          101.9
     0.411              -30.28          14.46          81.12          41.86         -5.082         -5.152          91.03          41.48          135.7          43.67          101.8
    0.4262              -30.31          14.49          81.01          41.88         -5.067         -5.132          90.87          41.42          135.4          43.78          101.7
    0.4414              -30.35          14.53           80.9          41.91         -5.049         -5.109           90.7          41.35          135.1          43.89          101.5
    0.4566              -30.39          14.57          80.76          41.94         -5.029         -5.084           90.5          41.27          134.7          44.02          101.4
    0.4718              -30.44          14.62          80.61          41.98         -5.006         -5.054          90.27          41.18          134.3          44.18          101.3
    0.4871              -30.49          14.68          80.44          42.02         -4.979          -5.02           90.0          41.08          133.8          44.35          101.1
    0.5023              -30.56          14.74          80.23          42.07         -4.948          -4.98          89.69          40.96          133.3          44.55          100.9
    0.5175              -30.64          14.82          79.99          42.13         -4.912         -4.933          89.33          40.82          132.6          44.79          100.6
    0.5327              -30.73          14.91          79.71           42.2         -4.869         -4.878          88.91          40.66          131.8          45.07          100.3
    0.5479              -30.84          15.02          79.37          42.28         -4.818         -4.813           88.4          40.46          130.9           45.4          100.0
    0.5632              -30.96          15.15          78.97          42.38         -4.757         -4.735          87.79          40.23          129.8           45.8           99.6
    0.5784              -31.12           15.3          78.48           42.5         -4.684          -4.64          87.06          39.94          128.4          46.28           99.1
    0.5936              -31.31           15.5          77.89          42.65         -4.593         -4.525          86.16           39.6          126.8          46.87           98.5
    0.6088              -31.55          15.73          77.15          42.83         -4.482         -4.382          85.06          39.17          124.7           47.6          97.76
     0.624              -31.84          16.03          76.24          43.05         -4.344         -4.204          83.68          38.64          122.2          48.51          96.84
    0.6393              -32.21           16.4          75.08          43.33         -4.169          -3.98          81.94          37.97          119.0          49.65          95.67
